<?xml version="1.0" encoding="utf-8" ?>
<svg xmlns="http://www.w3.org/2000/svg" xmlns:xlink="http://www.w3.org/1999/xlink" width="1160" height="928">
	<path fill="#FEFEFE" transform="scale(0.906484 0.906484)" d="M-0 -0L1280 0L1280 1024L-0 1024L0 -0Z"/>
	<path fill="#1E1C1D" transform="scale(0.906484 0.906484)" d="M882.51 29.6412C886.302 28.9965 890.752 29.2761 894.614 29.2028C907.127 28.9653 919.502 29.4299 931.893 31.1873L920 33.7566C892.26 40.8443 870.73 57.7283 853.897 80.4888C847.447 89.2095 841.987 98.702 836.454 108.017L840.962 105.21C887.069 78.0644 940.17 77.7074 990.612 90.8669C984.99 91.1806 979.575 92.0226 974.1 93.3362C944.039 100.548 915.353 115.601 898.829 142.634C904.892 144.366 911.26 147.706 916.812 150.672C944.674 165.559 971.011 186.007 990.938 210.603C1017.45 243.33 1034.36 287.385 1037.57 329.325C1038.26 338.323 1038.38 347.316 1038.19 356.337C1038.17 357.495 1037.38 365.093 1037.73 365.705C1038.33 366.737 1040.96 368.448 1041.94 369.373C1044.69 371.997 1047.23 374.956 1049.72 377.845C1060.97 390.94 1068.07 407.89 1073.07 424.258L1051.16 409.79C1051.48 413.274 1054.54 418.016 1055.78 421.457C1060.34 434.097 1060.91 448.907 1058.53 462.025L1037.84 441.767L1037.59 444.493C1036.77 450.665 1035.1 456.632 1031.86 461.988C1024.38 474.34 1009.12 483.964 997.727 492.601C1013.41 503.885 1027.49 516.645 1041.17 530.276C1065.14 554.163 1085.94 579.916 1104.24 608.419C1111.04 619.014 1120.02 632.685 1122.25 645.178C1123.19 650.443 1122.8 655.383 1119.65 659.814C1116.76 663.879 1111.79 665.661 1107 666.267C1100.45 667.096 1093.5 666.059 1087.08 664.92C1061.56 660.398 1037.05 647.72 1016.52 632.235C1009.08 659.657 997.865 684.107 981.389 707.315C933.857 774.265 861.734 815.02 781.526 828.598C784.043 836.93 785.749 845.514 787.812 853.966L796.941 890.772L799.652 902.334C799.793 902.92 800.03 904.711 800.319 905.055C800.338 905.078 801.997 905.277 802.094 905.289C822.961 908.032 843.195 911.87 862.985 919.258C871.765 922.536 880.901 926.451 887.812 932.96C890.955 935.919 893.489 939.903 893.465 944.363C893.448 947.413 891.632 950.756 889.423 952.801C881.624 960.022 868.946 959.551 859.065 959.328L858.532 961.533C857.509 965.727 856.123 968.532 852.641 971.232C844.972 977.181 832.738 979.24 823.298 978.052C806.241 975.907 782.889 967.702 772.217 953.565L771.773 952.969C769.414 953.573 766.95 955.614 764.717 956.699C760.138 958.922 755.266 960.826 750.355 962.174C747.104 963.067 743.599 963.605 740.235 963.751C738.95 963.807 735.16 963.421 734.153 963.872C732.971 964.403 731.44 966.003 730.312 966.792C726.449 969.497 721.246 971.089 716.562 971.422C702.121 972.449 686.35 970.064 672.994 964.524C672.643 964.378 672.302 963.963 671.941 964.082C669.818 964.777 665.465 969.641 663.399 971.211C651.586 980.195 635.468 988.675 620.465 990.067C610.181 991.021 599.964 991.013 591.628 984.172C589.78 981.998 587.933 979.698 587.166 976.903C586.989 976.257 586.255 972.756 585.81 972.668C584.302 972.37 580.556 973.475 578.834 973.749C568.493 975.398 553.818 977.213 544.688 970.752C541.195 968.281 538.273 964.538 537.635 960.222C536.93 955.45 538.153 951.569 541.092 947.773C554.725 930.165 600.841 920.386 622.412 917.446L640.757 831.603C626.012 830.025 611.292 826.416 597.016 822.483C541.411 807.165 486.185 779.626 442.932 741.233C433.106 732.51 423.116 723.453 414.062 713.937L406.297 705.403C406.066 705.143 404.859 703.566 404.597 703.481C403.365 703.075 400.413 703.433 399.026 703.408L385.871 702.876L362.038 700.661C322.219 695.988 283.6 686.151 246.444 671.058C199.97 652.181 109.465 601.297 89.5886 553.061C87.6792 548.427 86.6788 543.431 88.8792 538.677C90.9423 534.219 96.8487 532.043 101.518 532.188C110.304 532.461 119.497 537.175 127.695 540.203L157.403 550.618C185.222 559.526 213.581 566.727 242.403 571.503C256.757 573.881 271.691 576.024 286.231 576.474L314.375 576.578C318.022 576.482 322.488 576.839 325.938 575.703C330.194 574.302 334.974 570.75 338.887 568.484C362.059 555.058 383.838 539.68 406.077 524.816C448.902 496.192 492.71 469.997 541.343 452.525L536.641 444.693C531.908 448.154 517.988 460.218 512.188 459.377C511.219 458.252 510.637 457.321 510.185 455.89C505.563 441.239 513.143 423.257 519.784 410.35C507.904 414.622 497.506 419.472 486.773 426.131C490.761 405.895 502.587 386.873 517.126 372.512L526.039 364.516C527.02 363.682 528.981 362.432 529.694 361.435C529.802 361.284 529.733 359.159 529.738 358.881L530.082 345.527C530.714 330.955 531.796 316.508 534.62 302.173C540.03 274.704 549.542 248.736 564.823 225.165C584.383 194.995 612.17 171.043 644.229 155.042C648.616 152.852 653.142 150.776 657.731 149.046C660.11 148.149 665.314 147.128 667.096 145.579C668.665 144.214 670.049 141.904 671.35 140.22L680.867 128.093C698.443 106.966 720.881 89.2665 744.286 75.0247C787.165 48.9322 832.625 34.2958 882.51 29.6412Z"/>
	<path fill="#F2BC1F" transform="scale(0.906484 0.906484)" d="M730.999 945.361C731.933 944.849 732.951 944.376 734.028 944.293C737.492 944.025 741.1 944.601 744.593 944.504C751.989 944.3 760.392 942.449 767.633 943.832C758.293 949.169 746.995 954.24 736.081 954.825C734.745 951.163 733.45 948.395 730.999 945.361Z"/>
	<path fill="#F2BC1F" transform="scale(0.906484 0.906484)" d="M833.051 936.91C837.572 936.742 841.916 938.056 846.347 938.841L865.223 941.326C870.492 941.804 875.35 940.392 880.48 940.54L881.165 940.049L881.609 940.368C882.948 941.658 883.66 943.094 883.721 944.918L882.274 946.464C876.284 951.762 861.382 950.941 853.869 950.667C848.007 944.824 840.18 940.996 833.051 936.91Z"/>
	<path fill="#A0DC79" transform="scale(0.906484 0.906484)" d="M557.334 349.768C556.371 352.326 553.318 353.845 551.25 355.665L541.829 364.643C528.808 377.147 516.782 389.1 506.796 404.217C505.254 406.551 502.899 409.22 501.938 411.8L494.076 417.49C497.806 409.19 501.716 401.286 506.852 393.73C519.733 374.778 537.47 360.811 557.334 349.768Z"/>
	<path fill="#F2BC1F" transform="scale(0.906484 0.906484)" d="M653.787 949.745C656.658 951.982 661.252 954.675 663.302 957.581C651.41 970.422 632.574 979.54 614.931 980.224C608.816 980.461 601.84 980.664 597.022 976.254C595.202 974.588 594.582 972.829 594.025 970.482C608.162 970.105 621.614 970.032 635.019 964.812C637.914 963.685 641.358 962.441 643.847 960.547C647.571 957.712 649.693 953.232 653.287 950.16L653.787 949.745Z"/>
	<path fill="#F2BC1F" transform="scale(0.906484 0.906484)" d="M626.1 929.467L632.371 932.221C620.375 935.666 605.768 944.764 596.867 953.71C594.745 955.842 592.87 960.181 590.735 961.725C589.947 962.295 586.892 962.645 585.856 962.872C576.922 964.829 566.416 966.095 557.297 965.228C554.718 964.983 552.09 964.261 549.839 962.971L548.726 962.295C554.416 956.051 567.484 954.408 575.551 951.845C591.554 946.76 605.15 936.457 620.665 930.748C622.402 930.108 624.305 929.98 626.1 929.467Z"/>
	<path fill="#FAD829" transform="scale(0.906484 0.906484)" d="M548.726 962.295C547.241 960.985 546.553 959.86 545.776 958.046C546.028 956.742 546.446 955.802 547.178 954.681C550.234 950 556.129 946.553 560.929 943.967C580.05 933.665 601.501 929.423 622.612 925.391L626.1 929.467C624.305 929.98 622.402 930.108 620.665 930.748C605.15 936.457 591.554 946.76 575.551 951.845C567.484 954.408 554.416 956.051 548.726 962.295Z"/>
	<path fill="#FAD829" transform="scale(0.906484 0.906484)" d="M806.719 924.759L802.188 922.569L800.233 915.136C822.392 918 844.749 922.288 865.439 930.934C870.582 933.083 877.335 935.83 881.165 940.049L880.48 940.54C875.35 940.392 870.492 941.804 865.223 941.326L846.347 938.841C841.916 938.056 837.572 936.742 833.051 936.91L830.696 936.175C828.701 934.58 825.635 933.475 823.296 932.338L806.719 924.759Z"/>
	<path fill="#0E658A" transform="scale(0.906484 0.906484)" d="M557.644 472.735C580.835 491.868 605.323 507.503 633.2 519.006L663.728 530.172C664.97 530.57 674.612 532.857 675.064 533.436C675.72 534.278 676.057 540.247 676.191 541.628L676.462 544.856L628.278 526.269C605.647 515.181 582.881 500.034 565.098 482.017C562.454 479.338 558.886 476.364 557.644 472.735Z"/>
	<path fill="#2B8ABD" transform="scale(0.906484 0.906484)" d="M1006.46 516.364L1003.33 507.124C1018.17 519.2 1031.65 532.9 1044.66 546.906C1065.27 569.096 1084.46 592.532 1100.27 618.414C1105.69 627.273 1111.83 637.044 1113.92 647.287L1113.09 646.983L1085.93 607.545C1062.42 575.215 1035.88 543.499 1006.46 516.364Z"/>
	<path fill="#F2BC1F" transform="scale(0.906484 0.906484)" d="M774.445 942.02L774.864 942.084C778.302 942.661 781.782 944.174 785.196 945.05C799.559 948.737 814.772 951.785 829.588 949.162C832.575 948.633 836.789 948.089 839.315 946.34C842.727 948.737 848.668 953.528 849.601 957.798C849.815 958.781 849.68 960.396 849.129 961.258C847.08 964.46 842.964 965.895 839.387 966.691C821.58 970.653 803.902 964.858 788.882 955.376C784.482 952.599 775.613 947.234 774.445 942.02Z"/>
	<path fill="#9D6F2F" transform="scale(0.906484 0.906484)" d="M771.959 830.515C772.34 830.724 772.83 830.801 773.101 831.14C774.126 832.427 775.131 838.943 775.67 840.913L796.077 921.643L787.286 921.152L780.361 919.155L762.119 831.712L771.959 830.515Z"/>
	<path fill="#62B6DE" transform="scale(0.906484 0.906484)" d="M108.884 543.605L162.285 561.468C208.1 575.932 259.02 587.237 307.231 585.169L290.324 591.296C284.388 590.375 277.888 590.757 271.875 590.566L243.847 588.687C204.201 584.401 163.952 571.981 128.091 554.617C121.568 551.458 114.776 548.457 108.75 544.418L108.884 543.605Z"/>
	<path fill="#9D6F2F" transform="scale(0.906484 0.906484)" d="M649.881 833.016L662.264 834.056L648.501 905.738L646.105 920.256C645.743 922.74 645.931 925.801 644.78 928.039L640.631 928.714C636.802 928.543 633.123 928.436 629.41 927.414L628.785 926.164C632.513 915.958 634.154 905.106 636.305 894.477L644.283 855.834L647.425 840.554C647.977 837.986 648.263 835.136 649.881 833.016Z"/>
	<path fill="#10496B" transform="scale(0.906484 0.906484)" d="M1113.92 647.287L1114.21 647.689C1114.54 649.551 1114.75 651.288 1113.69 652.972C1112.1 655.497 1108.81 657.065 1105.93 657.463C1101.31 658.099 1095.87 657.196 1091.25 656.504C1069.4 653.227 1049.13 642.922 1030.78 630.989C1025.42 627.504 1019.98 624.159 1014.97 620.175L1016.64 605.908C1021.27 610.08 1028.2 613.287 1033.57 616.526L1067.86 635.66C1079.42 641.485 1092.82 648.233 1106.07 647.577L1113.09 646.983L1113.92 647.287Z"/>
	<path fill="#A0DC79" transform="scale(0.906484 0.906484)" d="M890.505 149.35C893.62 147.823 896.744 149.739 899.963 150.845C912.687 155.219 925.738 163.426 936.755 171.047C945.804 177.307 955.047 183.639 963.27 190.966C979.636 205.547 993.361 224.196 1002.92 243.919C1008.93 256.337 1014.48 269.066 1018.5 282.287C1024.1 300.696 1027.13 319.649 1029.29 338.725C1030.38 348.356 1031.78 358.47 1031.16 368.167C1029.58 369.251 1029.04 368.889 1027.19 368.681C1026.86 368.422 1026.38 368.281 1026.19 367.902C1025.64 366.76 1025.61 363.938 1025.44 362.561L1023.5 345.16L1019.96 321.328C1016.51 300.649 1010 279.404 1001.88 260.063C998.688 252.444 995.499 244.54 990.392 237.985C980.818 218.865 970.605 200.075 952.446 187.669C947.416 184.233 941.942 181.826 936.3 179.595C934.492 177.086 931.516 175.554 929.007 173.805C920.08 167.583 910.441 162.063 900.789 157.035C897.36 155.249 892.774 154.074 890.07 151.287L890.505 149.35Z"/>
	<path fill="#FAD829" transform="scale(0.906484 0.906484)" d="M730.999 945.361C726.872 941.91 722.561 939.441 717.805 936.993C734.231 927.869 753.708 921.863 771.643 916.463C777.371 922.538 786.424 924.044 794.456 924.367C799.022 924.55 800.911 923.58 805.073 926.199L806.719 924.759L823.296 932.338C825.635 933.475 828.701 934.58 830.696 936.175L830.019 936.777L828.219 935.924L827.188 937.104L827.722 937.29C828.486 937.577 829.147 937.949 829.853 938.352L829.336 939.299L839.315 946.34C836.789 948.089 832.575 948.633 829.588 949.162C814.772 951.785 799.559 948.737 785.196 945.05C781.782 944.174 778.302 942.661 774.864 942.084L774.445 942.02L774.463 941.61C774.64 938.842 775.475 936.108 776.155 933.427C773.983 937.092 771.848 942.367 767.633 943.832C760.392 942.449 751.989 944.3 744.593 944.504C741.1 944.601 737.492 944.025 734.028 944.293C732.951 944.376 731.933 944.849 730.999 945.361Z"/>
	<path fill="#1E1C1D" transform="scale(0.906484 0.906484)" d="M806.719 924.759L823.296 932.338C825.635 933.475 828.701 934.58 830.696 936.175L830.019 936.777L828.219 935.924L827.188 937.104L827.722 937.29C828.486 937.577 829.147 937.949 829.853 938.352L829.336 939.299L805.073 926.199L806.719 924.759Z"/>
	<path fill="#A0DC79" transform="scale(0.906484 0.906484)" d="M980.542 503.02L993.828 495.159C997.453 507.225 1001.48 519.095 1004.35 531.38C1008.97 551.188 1010.94 571.782 1010.73 592.096C1010.62 602.902 1010.13 613.354 1008.1 623.991C1004.79 641.372 998.684 657.482 990.938 673.329L990.269 673.602L990.061 668.794L989.338 651.051L989.602 650.372C990.977 646.62 991.517 641.613 992.315 637.633C999.785 600.408 997.992 561.161 988.178 524.503C986.508 518.265 985.221 511.508 982.405 505.681L980.542 503.02Z"/>
	<path fill="#278948" transform="scale(0.906484 0.906484)" d="M679.751 546.867L679.678 546.833C679.525 542.465 678.827 538.305 678.057 534.017C693.229 537.701 708.144 541.623 723.552 544.288C791.014 555.955 863.134 553.376 927.464 528.518C945.991 521.359 963.046 512.3 980.542 503.02L982.405 505.681C910.126 558.942 814.893 569.161 728.176 556C712.224 553.578 695.632 550.463 680.312 545.343L679.751 546.867Z"/>
	<path fill="#FAD829" transform="scale(0.906484 0.906484)" d="M594.025 970.482C594.425 966.384 595.518 962.889 597.889 959.51C605.004 949.376 616.659 941.558 627.5 935.916C629.896 934.669 632.67 932.8 635.248 932.037C637.561 931.354 640.277 931.645 642.682 931.173C645.89 930.542 647.412 930.092 649.168 927.285L649.688 926.424C658.124 926.232 667.191 928.475 675.326 930.53C686.715 933.408 697.419 936.854 708.147 941.643C713.41 943.993 719.301 946.804 723.644 950.655C725.82 952.584 726.073 953.71 726.25 956.484C725.131 958.925 723.314 960.048 720.846 960.99C716.25 962.744 710.868 962.546 706.035 962.272C683.645 961 666.117 952.1 646.433 942.688L653.787 949.745L653.287 950.16C649.693 953.232 647.571 957.712 643.847 960.547C641.358 962.441 637.914 963.685 635.019 964.812C621.614 970.032 608.162 970.105 594.025 970.482Z"/>
	<path fill="#62B6DE" transform="scale(0.906484 0.906484)" d="M238.712 615.283C264.144 609.611 291.057 602.131 314.726 591.206C349.391 575.206 379.901 552.71 411.709 531.943C454.449 504.039 498.06 478.799 545.437 459.546L550.428 465.107C510.987 482.587 474.784 503.909 438.529 527.175C402.684 550.178 368.468 577.662 329.672 595.615C316.445 601.736 302.182 606.352 288.125 610.151C275.66 613.521 261.655 616.628 248.708 617.148L238.712 615.283Z"/>
	<path fill="#0E658A" transform="scale(0.906484 0.906484)" d="M97.0474 545.738C97.6472 545.813 99.2306 545.815 99.6946 546.071C100.493 546.511 101.684 548.045 102.37 548.729L110.401 557.218C114.207 561.303 118.352 565.341 122.647 568.907C153.638 594.636 188.218 618.547 226.785 631.294C230.513 632.526 236.835 635.503 240.62 634.922C260.95 647.01 283.517 656.405 306.895 660.426C316.225 662.031 325.913 662.499 335.356 663.131L316.615 666.328C315.678 666.486 312.214 666.711 311.562 667.179C311.181 667.453 310.982 667.918 310.692 668.288C311.521 670.916 313.209 672.691 315.428 674.244C325.486 681.283 339.718 685.176 351.475 688.606C354.395 689.457 359.091 689.981 361.483 691.731C355.433 691.79 348.675 690.3 342.654 689.351C305.291 683.458 268.099 671.387 233.777 655.547C206.66 643.033 180.468 627.651 156.35 610.036C140.805 598.683 125.742 586.35 113.343 571.536C106.756 563.665 100.626 555.431 97.0474 545.738Z"/>
	<path fill="#2B8ABD" transform="scale(0.906484 0.906484)" d="M97.0474 545.738L97.0265 543.289C97.5828 542.839 98.076 542.412 98.7832 542.216C101.918 541.35 105.994 542.306 108.884 543.605L108.75 544.418C114.776 548.457 121.568 551.458 128.091 554.617C163.952 571.981 204.201 584.401 243.847 588.687L271.875 590.566C277.888 590.757 284.388 590.375 290.324 591.296L216.183 614.938C223.332 622.669 232.125 628.769 240.62 634.922C236.835 635.503 230.513 632.526 226.785 631.294C188.218 618.547 153.638 594.636 122.647 568.907C118.352 565.341 114.207 561.303 110.401 557.218L102.37 548.729C101.684 548.045 100.493 546.511 99.6946 546.071C99.2306 545.815 97.6472 545.813 97.0474 545.738Z"/>
	<path fill="#0E658A" transform="scale(0.906484 0.906484)" d="M1006.46 516.364C1035.88 543.499 1062.42 575.215 1085.93 607.545L1113.09 646.983L1106.07 647.577C1092.82 648.233 1079.42 641.485 1067.86 635.66L1033.57 616.526C1028.2 613.287 1021.27 610.08 1016.64 605.908C1018.09 583.607 1015.85 560.575 1011.61 538.683L1006.46 516.364Z"/>
	<path fill="#A0DC79" transform="scale(0.906484 0.906484)" d="M544.687 351.726L536.968 356.414C536.664 340.098 538.896 323.919 542.126 307.969C546.719 285.291 553.396 264.129 564.509 243.731C583.344 209.157 609.894 183.618 643.499 163.531C651.269 158.887 660.709 152.966 669.403 150.494C669.456 150.479 683.808 132.036 687.142 128.469C742.966 68.7485 824.323 35.2781 905.457 32.5863C904.619 33.0018 904.791 32.9562 904.116 33.1907L890.032 39.1152C886.156 39.5675 882.737 40.9555 879.04 42.1207C869.601 45.0962 860.61 48.8486 851.502 52.6857L821.566 65.2945C784.214 82.6896 748.068 103.27 713.55 125.73L670.82 155.455C644.868 172.925 617.972 188.083 598.065 213.022C590.266 222.791 582.065 233.323 575.65 244.056C561.834 267.175 553.319 292.636 548.205 318.98C546.231 329.15 543.87 341.391 544.687 351.726Z"/>
	<path fill="#278948" transform="scale(0.906484 0.906484)" d="M680.083 557.023L680.179 557.515C680.398 558.568 680.494 559.222 681.174 560.077C682.501 561.747 682.976 564.775 683.476 566.851C685.997 577.332 686.365 588.879 685.021 599.559C679.756 641.395 655.876 678.38 622.797 703.971C596.154 724.583 562.876 738.622 529.565 743.59C517.65 745.368 505.681 745.653 493.661 745.847L580.777 769.207C584.637 770.174 589.35 769.261 593.356 769.639C589.027 770.662 583.72 769.923 579.219 770.09C552.198 771.093 523.031 766.126 497.561 757.17C488.443 753.964 479.763 749.841 470.835 746.175C469.915 744.971 466.05 743.62 464.55 742.88C458.138 738.307 450.934 734.746 444.465 730.098C433.747 722.397 424.728 712.799 415.593 703.354C443.229 703.444 471.961 702.359 499.14 696.859L485.851 705.211C482.931 707.281 474.935 712.571 474.322 716.112C474.705 716.795 475.052 717.455 475.642 717.988C481.009 722.824 495.135 723.233 502.152 723.344C548.772 724.079 600.084 708.909 634.115 675.905C651.911 658.645 663.083 640.098 671.269 616.748C674.32 608.044 677.056 599.054 678.379 589.905C679.95 579.035 679.918 567.983 680.083 557.023Z"/>
	<path fill="#FEFEFE" transform="scale(0.906484 0.906484)" d="M747.703 833.578C749.504 833.389 751.363 833.012 753.104 833.641L768.724 907.596L768.215 907.969C765.84 909.135 762.008 909.599 759.378 910.371L737.934 917.487L719.932 924.988C716.824 926.436 711.476 930.124 708.328 930.716C707.504 930.87 704.12 929.415 703.14 929.095L683.894 922.652L655.43 916.602L670.877 834.976L747.703 833.578Z"/>
	<path fill="#0E658A" transform="scale(0.906484 0.906484)" d="M676.875 563.836C676.482 604.413 661.783 642.966 632.604 671.525C598.613 704.792 548.716 720.12 501.835 719.549C494.126 719.455 486.38 718.805 479.119 716.048C483.855 711.521 488.68 707.077 494.341 703.707C507.67 695.774 523.295 692.464 536.888 685.114C528.826 685.914 520.986 688.418 513.086 690.19C502.784 692.501 492.386 694.249 481.904 695.5C436.878 700.872 391.885 696.391 348.525 683.3C337.991 680.119 326.964 677.13 317.91 670.669C323.75 668.047 330.878 667.459 337.154 666.295L360.425 661.624L361.239 662.132C363.298 663.234 366.829 663.706 369.13 664.292L393.151 669.642C438.498 678.52 487.683 679.196 532.773 668.571C548.812 664.792 564.339 659.279 579.891 653.916C567.343 664.249 554.944 674.452 545.354 687.727C563.017 686.569 578.123 683.752 594.512 676.777C629.847 661.738 658.684 633.504 669.806 596.32C671.498 590.664 672.879 584.938 673.863 579.118C674.667 574.363 674.813 568.755 676.669 564.309L676.875 563.836Z"/>
	<path fill="#59B560" transform="scale(0.906484 0.906484)" d="M982.405 505.681C985.221 511.508 986.508 518.265 988.178 524.503C997.992 561.161 999.785 600.408 992.315 637.633C991.517 641.613 990.977 646.62 989.602 650.372L989.338 651.051C984.43 628.391 976.84 607.783 956.431 594.487C940.678 584.225 921.172 582.799 903.125 586.599C867.514 594.098 848.905 624.533 826.77 649.928C815.159 663.249 802.719 675.73 789.363 687.307C754.433 717.581 715.073 739.412 671.301 754.019C653.445 759.978 634.999 764.664 616.356 767.409C608.825 768.517 600.968 769.654 593.356 769.639C589.35 769.261 584.637 770.174 580.777 769.207L493.661 745.847C505.681 745.653 517.65 745.368 529.565 743.59C562.876 738.622 596.154 724.583 622.797 703.971C655.876 678.38 679.756 641.395 685.021 599.559C686.365 588.879 685.997 577.332 683.476 566.851C682.976 564.775 682.501 561.747 681.174 560.077C680.494 559.222 680.398 558.568 680.179 557.515L680.083 557.023L679.751 546.867L680.312 545.343C695.632 550.463 712.224 553.578 728.176 556C814.893 569.161 910.126 558.942 982.405 505.681Z"/>
	<defs>
		<linearGradient id="gradient_0" gradientUnits="userSpaceOnUse" x1="700.02032" y1="837.32111" x2="769.89941" y2="548.87671">
			<stop offset="0" stop-color="#EEB92E"/>
			<stop offset="1" stop-color="#FCD739"/>
		</linearGradient>
	</defs>
	<path fill="url(#gradient_0)" transform="scale(0.906484 0.906484)" d="M593.356 769.639C600.968 769.654 608.825 768.517 616.356 767.409C634.999 764.664 653.445 759.978 671.301 754.019C715.073 739.412 754.433 717.581 789.363 687.307C802.719 675.73 815.159 663.249 826.77 649.928C848.905 624.533 867.514 594.098 903.125 586.599C921.172 582.799 940.678 584.225 956.431 594.487C976.84 607.783 984.43 628.391 989.338 651.051L990.061 668.794C988.936 668.465 988.862 667.942 988.199 667.017C988.3 670.224 988.917 674.788 988.13 677.846C987.301 681.064 984.747 684.446 983.007 687.286C973.403 702.951 961.558 717.482 948.976 730.85C886.5 797.226 800.02 824.486 710.793 826.955C672.19 828.023 633.155 823.97 595.993 813.254C565.611 804.494 535.261 790.768 507.699 775.395C493.517 767.485 477.295 758.85 465.506 747.57L465.017 747.095L465.102 746.494C464.171 744.806 464.216 744.789 464.55 742.88C466.05 743.62 469.915 744.971 470.835 746.175C479.763 749.841 488.443 753.964 497.561 757.17C523.031 766.126 552.198 771.093 579.219 770.09C583.72 769.923 589.027 770.662 593.356 769.639Z"/>
	<path fill="#1E1C1D" transform="scale(0.906484 0.906484)" d="M593.356 769.639C600.968 769.654 608.825 768.517 616.356 767.409C634.999 764.664 653.445 759.978 671.301 754.019C715.073 739.412 754.433 717.581 789.363 687.307C802.719 675.73 815.159 663.249 826.77 649.928C848.905 624.533 867.514 594.098 903.125 586.599C921.172 582.799 940.678 584.225 956.431 594.487C976.84 607.783 984.43 628.391 989.338 651.051L990.061 668.794C988.936 668.465 988.862 667.942 988.199 667.017C986.705 642.12 981.297 618.392 961.836 601.04C949.056 589.645 932.518 586.035 915.817 587.075C889.408 588.72 869.223 603.159 852.387 622.498L834.381 644.569C824.576 656.168 814.163 667.327 803.162 677.805C761.674 717.321 712.156 744.346 657.432 760.548C638.249 766.228 618.135 770.892 598.151 772.347C554.039 775.559 511.387 768.187 471.292 749.385L465.102 746.494C464.171 744.806 464.216 744.789 464.55 742.88C466.05 743.62 469.915 744.971 470.835 746.175C479.763 749.841 488.443 753.964 497.561 757.17C523.031 766.126 552.198 771.093 579.219 770.09C583.72 769.923 589.027 770.662 593.356 769.639Z"/>
	<path fill="#2B8ABD" transform="scale(0.906484 0.906484)" d="M550.428 465.107L557.644 472.735C558.886 476.364 562.454 479.338 565.098 482.017C582.881 500.034 605.647 515.181 628.278 526.269L676.462 544.856L676.875 563.836L676.669 564.309C674.813 568.755 674.667 574.363 673.863 579.118C672.879 584.938 671.498 590.664 669.806 596.32C658.684 633.504 629.847 661.738 594.512 676.777C578.123 683.752 563.017 686.569 545.354 687.727C554.944 674.452 567.343 664.249 579.891 653.916C564.339 659.279 548.812 664.792 532.773 668.571C487.683 679.196 438.498 678.52 393.151 669.642L369.13 664.292C366.829 663.706 363.298 663.234 361.239 662.132L360.425 661.624L380.193 656.899C376.635 655.868 372.817 656.677 369.225 657.113L352.918 658.794C345.219 659.341 337.565 658.724 329.881 658.205C291.507 655.614 253.914 643.531 224.596 617.937L238.712 615.283L248.708 617.148C261.655 616.628 275.66 613.521 288.125 610.151C302.182 606.352 316.445 601.736 329.672 595.615C368.468 577.662 402.684 550.178 438.529 527.175C474.784 503.909 510.987 482.587 550.428 465.107Z"/>
	<path fill="#0E658A" transform="scale(0.906484 0.906484)" d="M380.193 656.899C376.635 655.868 372.817 656.677 369.225 657.113L352.918 658.794C345.219 659.341 337.565 658.724 329.881 658.205C291.507 655.614 253.914 643.531 224.596 617.937L238.712 615.283L248.708 617.148C260.092 624.082 273.994 629.069 286.762 632.74C322.93 643.137 359.754 644.994 397.168 644.266L419.974 643.219C425.183 642.862 431.037 642.125 436.222 642.668C430.079 645.504 386.198 657.676 380.193 656.899Z"/>
	<path fill="#59B560" transform="scale(0.906484 0.906484)" d="M544.687 351.726C543.87 341.391 546.231 329.15 548.205 318.98C553.319 292.636 561.834 267.175 575.65 244.056C582.065 233.323 590.266 222.791 598.065 213.022C617.972 188.083 644.868 172.925 670.82 155.455L713.55 125.73C748.068 103.27 784.214 82.6896 821.566 65.2945L851.502 52.6857C860.61 48.8486 869.601 45.0962 879.04 42.1207C882.737 40.9555 886.156 39.5675 890.032 39.1152C876.248 47.755 864.476 57.9368 854.169 70.6028C846.315 80.2561 839.935 90.7255 833.362 101.266C828.409 109.208 822.068 118.601 819.647 127.649C819.443 128.413 819.392 129.166 819.356 129.951C822.639 125.714 826.405 122.378 830.707 119.19C859.239 98.0488 896.874 87.2117 932.083 86.9614C945.209 86.868 958.797 88.5388 971.769 90.496L955.074 94.2387C944.736 98.3387 934.138 102.493 924.62 108.306C910.406 116.986 896.739 131.585 890.238 147.054C889.953 147.733 889.889 148.351 889.893 149.078L890.505 149.35L890.07 151.287C892.774 154.074 897.36 155.249 900.789 157.035C910.441 162.063 920.08 167.583 929.007 173.805C931.516 175.554 934.492 177.086 936.3 179.595C941.942 181.826 947.416 184.233 952.446 187.669C970.605 200.075 980.818 218.865 990.392 237.985C995.499 244.54 998.688 252.444 1001.88 260.063C1010 279.404 1016.51 300.649 1019.96 321.328L1023.5 345.16L1025.44 362.561C1025.61 363.938 1025.64 366.76 1026.19 367.902C1026.38 368.281 1026.86 368.422 1027.19 368.681C1029.04 368.889 1029.58 369.251 1031.16 368.167L1031.47 368.903C1032.72 371.557 1038.47 374.936 1040.82 377C1049.63 384.756 1055.58 392.89 1060.82 403.382C1062.47 406.691 1064.44 410.237 1065.25 413.852C1058.07 408.984 1050.83 404.497 1043.21 400.347C1038.69 397.886 1034.2 395.345 1029.13 394.256C1033.89 398.397 1040.35 402.871 1044.27 407.743C1051.54 416.755 1054.72 430.668 1055.46 441.935L1055.64 453.895C1049.43 446.819 1041.76 438.088 1034.29 432.468C1033.52 437.073 1033.29 441.759 1032.36 446.332C1031.48 450.661 1030.43 455.415 1028.25 459.293C1023.28 468.13 1012.34 475.724 1004.1 481.583C974.301 502.784 940.817 519.729 905.763 530.3C848.195 547.662 785.048 548.983 726.094 538.909C661.127 527.809 595.339 503.816 548.83 455.454C549.161 454.18 554.929 451.158 556.346 450.014L546.356 452.256C544.506 449.286 541.441 445.479 540.578 442.144C544.469 438.367 549.9 434.11 552.928 429.688C538.907 434.468 526.791 444.962 514.13 452.522C514.173 439.037 516.368 428.957 522.42 416.749C523.574 414.421 524.828 411.282 526.728 409.473L536.549 400.404C524.503 401.982 512.88 406.719 501.938 411.8C502.899 409.22 505.254 406.551 506.796 404.217C516.782 389.1 528.808 377.147 541.829 364.643L551.25 355.665C553.318 353.845 556.371 352.326 557.334 349.768L557.813 349.438L575.277 339.733C564.201 342.425 554.489 345.819 544.687 351.726Z"/>
	<path fill="#1E1C1D" transform="scale(0.906484 0.906484)" d="M849.078 271.145C854.409 256.883 871.935 243.02 885.287 236.878C902.942 228.756 924.563 228.321 942.693 235.174C960.68 241.972 977.17 257.408 985.045 274.98C993.109 292.974 994.007 313.962 986.825 332.35C979.232 351.791 964.399 365.478 945.491 373.723C939.024 376.543 931.044 379.577 923.898 379.511L918.125 379.163C918.688 378.585 919.531 378.664 920.312 378.536L920.312 378.315C918.378 378.37 916.721 378.41 914.844 377.902L914.913 376.776C918.759 377.989 925.233 376.466 929.138 375.557C949.257 370.874 967.681 359.612 978.585 341.784C988.666 325.301 990.728 306.685 986.206 288.091C981.475 268.634 967.989 252.481 950.976 242.337C936.086 233.46 915.212 230.867 898.496 235.32C877.254 240.978 861.733 254.48 850.927 273.24C850.967 272.195 850.969 271.084 851.253 270.069L851.569 269.128L850.187 271.1L849.078 271.145Z"/>
	<path fill="#1E1C1D" transform="scale(0.906484 0.906484)" d="M702.833 374.757C698.03 377.19 693.172 379.203 688.007 380.742C666.867 387.039 644.081 384.878 624.688 374.206C606.816 364.372 592.6 346.647 587.14 326.979C581.548 306.832 583.786 285.391 594.303 267.209C605.223 248.329 622.578 234.656 643.818 229.22C665.287 223.725 687.925 228.022 706.847 239.27C724.351 249.675 737.22 267.639 742.173 287.296C747.425 308.139 744.347 327.877 733.249 346.29L731.331 344.749C741.467 325.859 744.845 306.434 738.592 285.624C732.835 266.464 719.017 248.844 701.26 239.432C682.903 229.703 661.551 226.641 641.553 232.833C622.333 238.784 604.928 252.809 595.544 270.718C586.288 288.382 584.483 308.996 590.552 328.02C596.757 347.472 610.454 363.504 628.602 372.794C647.347 382.39 668.842 383.804 688.802 377.28L699.154 373.093C700.25 373.758 700.561 374.145 701.873 374.18L702.833 374.757Z"/>
	<path fill="#1E1C1D" transform="scale(0.906484 0.906484)" d="M659.435 178.427L659.765 178.375C680.058 176.777 703.87 183.869 718.961 197.645C717.514 197.419 716.115 196.918 714.712 196.505C687.297 188.439 655.001 191.231 629.897 204.941C615.917 213.169 605.707 222.804 595.022 234.944C594.883 232.643 596.056 229.464 596.78 227.272C599.631 218.638 603.744 210.709 609.605 203.735C621.883 189.124 640.543 179.997 659.435 178.427Z"/>
	<path fill="#1E1C1D" transform="scale(0.906484 0.906484)" d="M990.392 237.985C988.802 237.802 988.228 237.252 987.066 236.115C983.032 232.17 979.53 227.595 975.545 223.574C969.478 217.45 962.367 211.893 954.903 207.582C928.865 192.546 897.157 187.557 867.885 195.424C871.183 192.004 874.624 189.092 878.698 186.623C896.582 175.787 916.497 174.818 936.3 179.595C941.942 181.826 947.416 184.233 952.446 187.669C970.605 200.075 980.818 218.865 990.392 237.985Z"/>
	<path fill="#A0DC79" transform="scale(0.906484 0.906484)" d="M819.356 129.951C822.639 125.714 826.405 122.378 830.707 119.19C859.239 98.0488 896.874 87.2117 932.083 86.9614C945.209 86.868 958.797 88.5388 971.769 90.496L955.074 94.2387C951.569 93.8513 948.093 94.2466 944.581 94.3107C923.836 94.6897 904.861 101.514 886.102 109.826C868.77 117.507 851.646 126.505 835.424 136.323L810.962 152.199C813.575 145.998 816.843 139.592 818.775 133.158C819.028 132.313 819.645 130.807 819.356 129.951Z"/>
	<path fill="#C3E8F2" transform="scale(0.906484 0.906484)" d="M850.927 273.24C861.733 254.48 877.254 240.978 898.496 235.32C915.212 230.867 936.086 233.46 950.976 242.337C967.989 252.481 981.475 268.634 986.206 288.091C990.728 306.685 988.666 325.301 978.585 341.784C967.681 359.612 949.257 370.874 929.138 375.557C925.233 376.466 918.759 377.989 914.913 376.776C913.64 372.452 899.657 361.107 895.745 357.549L874.574 341.34L845.872 324.306C843.595 312.34 842.617 300.984 845.456 288.986C846.751 283.512 848.865 278.447 850.927 273.24Z"/>
	<path fill="#1E1C1D" transform="scale(0.906484 0.906484)" d="M915.797 271.706C919.948 269.253 927.008 267.786 931.754 269.015C938.247 270.696 943.573 274.149 946.882 280.12C949.959 285.671 949.897 291.082 949.214 297.235L948.657 297.823C951.705 308.073 950.065 319.853 945.078 329.203C939.518 339.626 929.583 347.312 918.297 350.67C911.982 352.549 905.603 352.733 899.111 351.8C889.445 349.798 882.694 346.028 875.856 338.95L874.135 336.466C867.722 326.771 865.381 314.479 867.765 303.104C869.909 292.876 876.74 283.492 885.473 277.842C894.609 271.932 905.081 269.407 915.797 271.706Z"/>
	<path fill="#FEFEFE" transform="scale(0.906484 0.906484)" d="M915.797 271.706C919.948 269.253 927.008 267.786 931.754 269.015C938.247 270.696 943.573 274.149 946.882 280.12C949.959 285.671 949.897 291.082 949.214 297.235L948.657 297.823C946.741 300.722 944.799 303.523 942.098 305.754C937.026 309.944 930.642 311.976 924.062 311.251C918.657 310.656 912.856 307.539 909.478 303.288C905.952 298.852 904.303 292.985 905.174 287.346C906.276 280.209 910.166 275.816 915.797 271.706Z"/>
	<path fill="#C3E8F2" transform="scale(0.906484 0.906484)" d="M699.154 373.093L688.802 377.28C668.842 383.804 647.347 382.39 628.602 372.794C610.454 363.504 596.757 347.472 590.552 328.02C584.483 308.996 586.288 288.382 595.544 270.718C604.928 252.809 622.333 238.784 641.553 232.833C661.551 226.641 682.903 229.703 701.26 239.432C719.017 248.844 732.835 266.464 738.592 285.624C744.845 306.434 741.467 325.859 731.331 344.749C723.064 357.065 712.463 366.51 699.154 373.093Z"/>
	<path fill="#1E1C1D" transform="scale(0.906484 0.906484)" d="M674.27 274.562C675.516 272.588 679.218 271.361 681.426 270.894C687.853 269.534 694.521 269.898 700.065 273.746C704.603 276.896 708.3 283.466 709.176 288.828C709.766 292.434 709.538 296.146 708.324 299.585L707.471 300.258C710.441 306.961 710.75 316.258 709.074 323.245C706.539 333.808 699.549 342.977 690.287 348.591C680.369 354.601 667.993 356.33 656.742 353.549C646.306 350.969 636.85 343.887 631.307 334.678C625.943 325.765 623.943 314.114 626.533 303.978C629.292 293.179 636.154 284.197 645.79 278.595C654.329 273.63 664.694 272.083 674.27 274.562Z"/>
	<path fill="#FEFEFE" transform="scale(0.906484 0.906484)" d="M674.27 274.562C675.516 272.588 679.218 271.361 681.426 270.894C687.853 269.534 694.521 269.898 700.065 273.746C704.603 276.896 708.3 283.466 709.176 288.828C709.766 292.434 709.538 296.146 708.324 299.585L707.471 300.258C702.928 305.532 698.786 309.761 691.577 311.066C685.574 312.153 679.563 310.72 674.67 307.103C670.815 304.254 667.349 299.232 666.852 294.405C665.942 285.588 669.021 281.118 674.27 274.562Z"/>
	<defs>
		<linearGradient id="gradient_1" gradientUnits="userSpaceOnUse" x1="812.2757" y1="268.78482" x2="812.11267" y2="475.10779">
			<stop offset="0" stop-color="black"/>
			<stop offset="1" stop-color="#2F292A"/>
		</linearGradient>
	</defs>
	<path fill="url(#gradient_1)" transform="scale(0.906484 0.906484)" d="M849.078 271.145L850.187 271.1L851.569 269.128L851.253 270.069C850.969 271.084 850.967 272.195 850.927 273.24C848.865 278.447 846.751 283.512 845.456 288.986C842.617 300.984 843.595 312.34 845.872 324.306L874.574 341.34L895.745 357.549C899.657 361.107 913.64 372.452 914.913 376.776L914.844 377.902C916.721 378.41 918.378 378.37 920.312 378.315L920.312 378.536C919.531 378.664 918.688 378.585 918.125 379.163L923.898 379.511L919.062 380.157L918.901 381.031C921.419 383.555 923.618 386.065 925.716 388.949C907.546 396.827 888.981 401.958 869.457 405.172C869.482 420.817 867.051 435.847 861.288 450.422C857.761 459.344 851.176 468.696 842.051 472.545C826.566 479.076 808.505 474.117 793.79 467.877C752.535 450.383 725.42 411.969 709.08 371.553L702.833 374.757L701.873 374.18C700.561 374.145 700.25 373.758 699.154 373.093C712.463 366.51 723.064 357.065 731.331 344.749L733.249 346.29L728.294 354.363C743.341 342.679 758.987 330.147 776.557 322.43C785.983 318.29 796.068 314.644 806.487 314.539C818.505 314.417 831.007 319.156 842.071 323.486C842.435 320.155 841.015 315.798 840.729 312.362C839.633 299.236 841.686 282.998 848.724 271.693L849.078 271.145Z"/>
	<path fill="#6F5C5A" transform="scale(0.906484 0.906484)" d="M744.733 402.946C743.184 400.288 740.955 397.259 740.005 394.368C748.253 398.053 756.836 401.015 765.642 403.067L753.764 411.337L751.562 412.104C748.892 409.642 746.813 405.945 744.733 402.946Z"/>
	<path fill="#F2BC1F" transform="scale(0.906484 0.906484)" d="M764.706 429.978L765.149 430.621C767.253 433.05 771.448 435.676 774.127 437.537C787.743 446.998 804.522 455.952 821.156 458.04C828.077 458.909 834.707 458.143 840.312 453.699C854.823 442.195 856.482 423.579 858.589 406.647L865.817 405.576C865.513 419.549 863.29 432.811 858.412 445.964C855.065 454.988 850.229 463.955 840.983 468.03C828.477 473.541 810.493 468.492 798.438 463.827C760.544 449.163 732.429 413.429 716.254 377.23C719.557 380.584 722.863 384.262 726.823 386.834C728.869 388.163 732.884 389.297 734.443 390.795C735.158 391.481 736.167 394.31 736.703 395.333C738.408 398.586 740.368 401.617 742.411 404.665C748.196 413.173 755.996 424.198 764.706 429.978Z"/>
	<path fill="#B65A54" transform="scale(0.906484 0.906484)" d="M754.322 414.043L769.429 403.565C778.345 405.531 787.804 407.127 796.875 408.074L809.646 409.033C811.109 409.121 813.813 408.969 815.096 409.697C816.352 410.41 818.086 412.762 819.136 413.851C823.754 418.642 828.084 423.446 831.713 429.055C834.397 433.203 836.786 437.575 839.059 441.959C839.885 443.553 841.049 445.275 841.331 447.036C836.157 451.778 831.631 454.608 824.375 454.299C808.921 453.64 792.622 445.657 779.932 437.229C777.281 435.469 773.151 431.392 770.341 430.467L753.839 415.406L754.322 414.043Z"/>
	<path fill="#FAD829" transform="scale(0.906484 0.906484)" d="M802.851 318.412L809.697 318.432C817.05 319.023 824.408 321.616 831.31 324.159C864.109 336.243 896.032 360.39 918.406 387.056C900.756 393.329 882.361 398.601 863.793 401.359C853.884 402.831 843.783 403.315 833.785 403.872L788.448 401.886C762.89 398.632 732.973 391.103 716.429 369.677C720.765 364.984 726.28 361.289 731.226 357.264C751.742 340.569 775.885 322.007 802.851 318.412Z"/>
	<path fill="#F4F2BE" transform="scale(0.906484 0.906484)" d="M803.768 330.304C814.976 329.162 825.795 330.731 836.121 335.297C845.663 339.517 854.51 345.452 862.082 352.648C864.489 354.935 867.509 358.206 868.507 361.44C868.99 363.005 869.04 365.546 868.255 366.968C866.859 369.497 864.226 370.636 861.562 371.334C853.007 371.736 846.151 363.188 839.67 358.688C835.464 355.768 830.807 353.181 826.209 350.931C818.104 346.964 809.225 345.555 800.898 342.318C798.618 341.432 797.587 340.682 796.582 338.452C796.573 337.176 796.616 335.985 797.157 334.804C798.48 331.913 800.993 331.211 803.768 330.304Z"/>
</svg>
